<?xml version="1.0" encoding="UTF-8" standalone="no"?>
<svg xmlns:xlink="http://www.w3.org/1999/xlink" height="25.6px" width="27.8px" xmlns="http://www.w3.org/2000/svg">
  <g transform="matrix(1.0, 0.0, 0.0, 1.0, 15.0, 18.9)">
    <use height="32.0" id="_Contents" transform="matrix(0.8, 0.0, 0.0, 0.8, -14.9998, -18.8997)" width="34.75" xlink:href="#sprite0"/>
  </g>
  <defs>
    <g id="sprite0" transform="matrix(1.0, 0.0, 0.0, 1.0, 18.75, 24.0)">
      <use height="32.0" transform="matrix(1.0, 0.0, 0.0, 1.0, -18.75, -24.0)" width="34.75" xlink:href="#shape0"/>
    </g>
    <g id="shape0" transform="matrix(1.0, 0.0, 0.0, 1.0, 18.75, 24.0)">
      <path d="M-18.75 -5.85 L-16.0 -7.25 -16.0 0.0 -18.75 -5.85" fill="#000000" fill-opacity="0.4" fill-rule="evenodd" stroke="none"/>
      <path d="M0.0 -8.0 L0.0 8.0 -16.0 0.0 -16.0 -16.0 0.0 -8.0" fill="#a92201" fill-rule="evenodd" stroke="none"/>
      <path d="M0.0 -8.0 L16.0 -16.0 16.0 0.0 0.0 8.0 0.0 -8.0" fill="#ea3204" fill-rule="evenodd" stroke="none"/>
      <path d="M16.0 -16.0 L0.0 -8.0 -16.0 -16.0 0.0 -24.0 16.0 -16.0" fill="#fd4f24" fill-rule="evenodd" stroke="none"/>
      <path d="M16.0 -16.0 L0.0 -8.0 0.0 8.0 16.0 0.0 16.0 -16.0 0.0 -24.0 -16.0 -16.0 0.0 -8.0 M0.0 8.0 L-16.0 0.0 -16.0 -16.0" fill="none" stroke="#000000" stroke-linecap="round" stroke-linejoin="round" stroke-width="0.05"/>
    </g>
  </defs>
</svg>
