<?xml version="1.0" encoding="UTF-8" standalone="no"?>
<svg xmlns:xlink="http://www.w3.org/1999/xlink" height="44.45px" width="40.45px" xmlns="http://www.w3.org/2000/svg">
  <g transform="matrix(1.0, 0.0, 0.0, 1.0, 25.85, 32.75)">
    <use height="44.25" transform="matrix(1.0, 0.0, 0.0, 1.0, -25.85, -32.65)" width="21.65" xlink:href="#sprite0"/>
    <use height="44.25" transform="matrix(1.0, 0.0, 0.0, 1.0, -14.3, -32.65)" width="28.8" xlink:href="#shape1"/>
    <use height="44.25" transform="matrix(1.0, 0.0, 0.0, 1.0, -14.4, -32.65)" width="28.8" xlink:href="#sprite1"/>
    <use height="44.25" transform="matrix(1.0, 0.0, 0.0, 1.0, -14.4, -32.65)" width="28.8" xlink:href="#sprite2"/>
    <use height="44.45" transform="matrix(1.0, 0.0, 0.0, 1.0, -14.4, -32.75)" width="29.0" xlink:href="#shape4"/>
  </g>
  <defs>
    <g id="sprite0" transform="matrix(1.0, 0.0, 0.0, 1.0, 11.55, 39.15)">
      <use height="44.25" transform="matrix(1.0, 0.0, 0.0, 1.0, -11.55, -39.15)" width="21.65" xlink:href="#shape0"/>
    </g>
    <g id="shape0" transform="matrix(1.0, 0.0, 0.0, 1.0, 11.55, 39.15)">
      <path d="M0.0 0.0 L7.2 5.1 0.0 0.0 -5.75 -10.2 -11.55 -20.4 -11.55 -34.05 -4.35 -39.15 10.05 -39.15 10.1 -39.15 7.2 -39.15 0.0 -34.05 0.0 0.0" fill="#000000" fill-opacity="0.2509804" fill-rule="evenodd" stroke="none"/>
    </g>
    <g id="shape1" transform="matrix(1.0, 0.0, 0.0, 1.0, 14.3, 32.65)">
      <path d="M7.3 -32.65 L14.5 -27.55 14.5 6.5 7.3 11.6 -7.1 11.6 -14.3 6.5 -14.3 -27.55 -7.1 -32.65 7.3 -32.65" fill="#993300" fill-rule="evenodd" stroke="none"/>
    </g>
    <g id="sprite1" transform="matrix(1.0, 0.0, 0.0, 1.0, 14.4, 0.0)">
      <use height="44.25" transform="matrix(1.0, 0.0, 0.0, 1.0, -14.4, 0.0)" width="28.8" xlink:href="#shape2"/>
    </g>
    <g id="shape2" transform="matrix(1.0, 0.0, 0.0, 1.0, 14.4, 0.0)">
      <path d="M14.4 18.75 L14.4 39.15 7.2 44.25 7.2 23.85 14.4 18.75" fill="#7e5a36" fill-rule="evenodd" stroke="none"/>
      <path d="M7.2 23.85 L7.2 44.25 -7.2 44.25 -7.2 23.85 7.2 23.85" fill="#6f4b27" fill-rule="evenodd" stroke="none"/>
      <path d="M-7.2 44.25 L-14.4 39.15 -14.4 18.75 -7.2 23.85 -7.2 44.25" fill="#74502c" fill-rule="evenodd" stroke="none"/>
      <path d="M14.4 18.75 L7.2 23.85 -7.2 23.85 -14.4 18.75 -14.4 5.1 -7.2 0.0 7.2 0.0 14.4 5.1 14.4 18.75" fill="#916d49" fill-rule="evenodd" stroke="none"/>
    </g>
    <g id="sprite2" transform="matrix(1.0, 0.0, 0.0, 1.0, 14.4, 0.0)">
      <use height="44.25" transform="matrix(1.0, 0.0, 0.0, 1.0, -14.4, 0.0)" width="28.8" xlink:href="#shape3"/>
    </g>
    <g id="shape3" transform="matrix(1.0, 0.0, 0.0, 1.0, 14.4, 0.0)">
      <path d="M7.2 23.85 L13.5 19.4 Q13.75 20.0 14.25 20.0 L14.4 20.0 14.4 39.15 7.2 44.25 7.2 41.15 Q8.1 41.1 8.1 39.4 8.4 37.7 7.2 37.65 L7.2 23.85 M12.6 31.9 Q13.8 31.9 13.6 30.3 13.8 28.65 12.6 28.65 11.8 28.65 11.65 29.4 L11.65 30.25 11.65 31.1 Q11.8 31.9 12.6 31.9" fill="#bbbbbb" fill-rule="evenodd" stroke="none"/>
      <path d="M-7.2 23.85 L7.2 23.85 7.2 37.65 7.15 37.65 Q6.35 37.65 6.2 38.45 L6.2 39.35 Q6.2 41.15 7.15 41.15 L7.2 41.15 7.2 44.25 -7.2 44.25 -7.2 23.85" fill="#888888" fill-rule="evenodd" stroke="none"/>
      <path d="M-14.4 18.75 L-7.2 23.85 -7.2 44.25 -14.4 39.15 -14.4 18.75 M-8.75 27.2 Q-7.8 27.2 -7.8 25.85 L-7.85 25.15 Q-8.0 24.5 -8.65 24.5 -9.7 24.5 -9.7 25.85 -9.85 27.2 -8.75 27.2" fill="#9b9b9b" fill-rule="evenodd" stroke="none"/>
      <path d="M-14.4 18.75 L-14.4 5.1 -7.2 0.0 7.2 0.0 14.4 5.1 14.4 15.9 14.15 15.85 Q13.2 15.85 13.2 17.5 13.2 18.8 13.5 19.4 L7.2 23.85 -7.2 23.85 -14.4 18.75" fill="#ffffff" fill-rule="evenodd" stroke="none"/>
    </g>
    <g id="shape4" transform="matrix(1.0, 0.0, 0.0, 1.0, 14.4, 32.75)">
      <path d="M7.3 -32.65 L-7.1 -32.65 -14.3 -27.55 -14.3 6.5 -7.1 11.6 7.3 11.6 14.5 6.5 14.5 -27.55 7.3 -32.65 Z" fill="none" stroke="#000000" stroke-linecap="round" stroke-linejoin="miter" stroke-miterlimit="1.0" stroke-width="0.25"/>
    </g>
  </defs>
</svg>
